# xmcd CD database file
#
# Track frame offsets:
#	150
#	37197
#	70057
#	98627
#	129922
#	149952
#	171345
#	191197
#	231945
#
# Disc length: 3323 seconds
#
# Revision: 0
# Processed by: cddbd v1.4PL0 Copyright (c) Steve Scherf et al.
# Submitted via: CDex 1.50
#
DISCID=890cf909
DTITLE=John Klemmer - Cry
DYEAR=1978
DGENRE=Jazz
TTITLE0=Intimacy
TTITLE1=Cry
TTITLE2=Waterfalls
TTITLE3=Happines
TTITLE4=I Am
TTITLE5=Love
TTITLE6=Infinity
TTITLE7='Round Midnight
TTITLE8=Ecstacy
EXTD=YEAR: 1978
EXTT0=
EXTT1=
EXTT2=
EXTT3=
EXTT4=
EXTT5=
EXTT6=
EXTT7=
EXTT8=
PLAYORDER=
